<?xml version="1.0" encoding="UTF-8" standalone="no"?>
<!-- Created with Inkscape (http://www.inkscape.org/) -->

<svg
   width="31.314516mm"
   height="31.314516mm"
   viewBox="0 0 31.314516 31.314516"
   version="1.1"
   id="svg5"
   inkscape:version="1.2.1 (9c6d41e410, 2022-07-14)"
   sodipodi:docname="dibujo.svg"
   inkscape:export-filename="dibujo.png"
   inkscape:export-xdpi="96"
   inkscape:export-ydpi="96"
   xmlns:inkscape="http://www.inkscape.org/namespaces/inkscape"
   xmlns:sodipodi="http://sodipodi.sourceforge.net/DTD/sodipodi-0.dtd"
   xmlns="http://www.w3.org/2000/svg"
   xmlns:svg="http://www.w3.org/2000/svg">
  <sodipodi:namedview
     id="namedview7"
     pagecolor="#ffffff"
     bordercolor="#000000"
     borderopacity="0.25"
     inkscape:showpageshadow="2"
     inkscape:pageopacity="0.0"
     inkscape:pagecheckerboard="0"
     inkscape:deskcolor="#d1d1d1"
     inkscape:document-units="mm"
     showgrid="false"
     inkscape:zoom="2.9825758"
     inkscape:cx="29.169418"
     inkscape:cy="111.98374"
     inkscape:window-width="1920"
     inkscape:window-height="1017"
     inkscape:window-x="-8"
     inkscape:window-y="-8"
     inkscape:window-maximized="1"
     inkscape:current-layer="layer1" />
  <defs
     id="defs2" />
  <g
     inkscape:label="Capa 1"
     inkscape:groupmode="layer"
     id="layer1"
     transform="translate(-73.760381,-93.056449)">
    <g
       id="g2031"
       transform="translate(0.04264026)">
      <g
         id="g745"
         transform="translate(1.9516129,3.9919355)">
        <path
           style="fill:#281845;stroke-width:0.18717"
           id="path628"
           sodipodi:type="arc"
           sodipodi:cx="87.423386"
           sodipodi:cy="104.72177"
           sodipodi:rx="15.657258"
           sodipodi:ry="15.657258"
           sodipodi:start="0.3899952"
           sodipodi:end="0.38032922"
           sodipodi:open="true"
           sodipodi:arc-type="arc"
           d="m 101.90495,110.67441 a 15.657258,15.657258 0 0 1 -20.399191,8.54327 15.657258,15.657258 0 0 1 -8.592542,-20.378489 15.657258,15.657258 0 0 1 20.357668,-8.641761 15.657258,15.657258 0 0 1 8.690925,20.33673" />
        <path
           style="fill:#a8cbfe;stroke-width:0.179747"
           id="path684"
           sodipodi:type="arc"
           sodipodi:cx="87.423386"
           sodipodi:cy="104.72177"
           sodipodi:rx="15.03629"
           sodipodi:ry="15.03629"
           sodipodi:start="0.3899952"
           sodipodi:end="0.38032922"
           sodipodi:open="true"
           sodipodi:arc-type="arc"
           d="m 101.33061,110.43833 a 15.03629,15.03629 0 0 1 -19.590158,8.20444 15.03629,15.03629 0 0 1 -8.25176,-19.570275 15.03629,15.03629 0 0 1 19.550281,-8.299028 15.03629,15.03629 0 0 1 8.346247,19.530173" />
        <path
           style="fill:#281845;stroke-width:0.16278"
           id="path740"
           sodipodi:type="arc"
           sodipodi:cx="87.423386"
           sodipodi:cy="104.72177"
           sodipodi:rx="13.616936"
           sodipodi:ry="13.616936"
           sodipodi:start="0.3899952"
           sodipodi:end="0.38032922"
           sodipodi:open="true"
           sodipodi:arc-type="arc"
           d="m 100.01784,109.89871 a 13.616936,13.616936 0 0 1 -17.740946,7.42999 13.616936,13.616936 0 0 1 -7.472833,-17.72294 13.616936,13.616936 0 0 1 17.704827,-7.51564 13.616936,13.616936 0 0 1 7.558402,17.68661" />
      </g>
      <path
         style="fill:#a8cbfe;stroke-width:0.264583"
         id="path799"
         sodipodi:type="arc"
         sodipodi:cx="84.540321"
         sodipodi:cy="102.01613"
         sodipodi:rx="2.217742"
         sodipodi:ry="2.217742"
         sodipodi:start="0.3899952"
         sodipodi:end="0.38032922"
         sodipodi:open="true"
         sodipodi:arc-type="arc"
         d="m 86.591535,102.85928 a 2.217742,2.217742 0 0 1 -2.889404,1.21009 2.217742,2.217742 0 0 1 -1.217074,-2.88647 2.217742,2.217742 0 0 1 2.883522,-1.224044 2.217742,2.217742 0 0 1 1.23101,2.880554" />
      <path
         style="fill:#a8cbfe;stroke-width:0.127"
         id="path801"
         sodipodi:type="arc"
         sodipodi:cx="80.637093"
         sodipodi:cy="105.38709"
         sodipodi:rx="1.0645162"
         sodipodi:ry="1.0645162"
         sodipodi:start="0.3899952"
         sodipodi:end="0.38032922"
         sodipodi:open="true"
         sodipodi:arc-type="arc"
         d="m 81.621675,105.7918 a 1.0645162,1.0645162 0 0 1 -1.386914,0.58085 1.0645162,1.0645162 0 0 1 -0.584195,-1.38551 1.0645162,1.0645162 0 0 1 1.38409,-0.58754 1.0645162,1.0645162 0 0 1 0.590885,1.38267" />
      <path
         style="fill:none;stroke:#a8cbfe;stroke-width:1.13257;stroke-dasharray:none"
         d="m 78.182147,118.51353 4.648074,-7.53806 5.472733,4.80131 6.259906,-9.69864"
         id="path984" />
      <path
         sodipodi:type="star"
         style="fill:#a8cbfe;stroke:none;stroke-width:1.5875;stroke-dasharray:none"
         id="path1806"
         inkscape:flatsided="true"
         sodipodi:sides="3"
         sodipodi:cx="112.09353"
         sodipodi:cy="95.21991"
         sodipodi:r1="8.4774609"
         sodipodi:r2="4.2387304"
         sodipodi:arg1="1.1435565"
         sodipodi:arg2="2.190754"
         inkscape:rounded="0"
         inkscape:randomized="0"
         d="m 115.60625,102.93536 -11.95086,-8.531066 13.36355,-6.084215 z"
         inkscape:transform-center-x="0.5341264"
         inkscape:transform-center-y="0.051553103"
         transform="matrix(0.27366716,-0.01344849,0.01385958,0.26555001,62.9271,81.649689)" />
      <path
         style="fill:#a8cbfe;stroke:none;stroke-width:1.5875;stroke-dasharray:none"
         d="m 88.25719,121.31443 c 0,0 4.126381,-1.22624 5.868685,-2.42907 2.198638,-1.51787 4.182285,-3.50938 5.491277,-5.83843 1.266778,-2.25394 2.063658,-7.47703 2.063658,-7.47703 0,0 2.04722,6.20875 -2.948176,11.72999 -4.995394,5.52124 -10.475444,4.01454 -10.475444,4.01454 z"
         id="path1924"
         sodipodi:nodetypes="caaczc" />
    </g>
  </g>
</svg>
