<!DOCTYPE svg PUBLIC "-//W3C//DTD SVG 1.1//EN" "http://www.w3.org/Graphics/SVG/1.1/DTD/svg11.dtd">
<svg xmlns="http://www.w3.org/2000/svg" viewBox="0 0 118 118">
<path fill="#aac9f9" stroke="#aac9f9" d="M44.072 1.591C23.846 7.028 6.831 24.193 1.543 44.495-8.019 81.206 20.742 118 59 118c25.476 0 48.848-16.844 55.983-40.348 1.195-3.934 2.587-7.933 3.094-8.888 1.152-2.168 1.231-21.072.085-20.364-.461.285-1.371-1.791-2.022-4.614-6.926-30.003-41.695-50.36-72.068-42.195M.37 59c0 5.775.165 8.138.367 5.25.202-2.888.202-7.612 0-10.5S.37 53.225.37 59" fill-rule="evenodd"/>
<path fill="#8595c2" stroke="#8595c2" d="M44.202 2.022c-58.546 15.338-58.257 99.002.394 114.003 31.291 8.003 64.932-12.119 71.487-42.759.678-3.171 1.612-6.194 2.075-6.716.992-1.12 1.158-17.199.167-16.208-.371.371-1.481-2.501-2.467-6.382-7.875-31.009-40.497-50.101-71.656-41.938m.406 2.5C4.201 15.617-10.714 65.934 17.3 96.65c38.587 42.309 108.24 6.366 96.603-49.851-6.234-30.116-39.552-50.443-69.295-42.277M51.5 8.008C20.861 12.656.734 44.2 9.712 73.5c1.65 5.385 7.177 16.517 8.177 16.473.508-.023 3.394-4.598 15.279-24.222.407-.673 4.625 2.343 10.809 7.729 8.609 7.497 10.341 8.619 11.472 7.426.732-.773 5.667-8.156 10.966-16.406 9.58-14.913 9.624-15.01 7.553-16.707-2.051-1.68-1.989-1.753 3.975-4.764L84 39.971v14.075l-2.266-1.485c-2.231-1.461-2.451-1.197-14.164 16.977C61.026 79.692 55.491 88 55.27 88c-.221 0-4.662-3.712-9.87-8.25-5.208-4.537-9.826-8.374-10.262-8.526-.437-.152-3.85 4.724-7.585 10.836l-6.791 11.112 3.869 3.99c5.24 5.403 17.942 11.39 27.075 12.761 30.852 4.631 58.71-19.829 58.616-51.465-.072-24.63-18.608-46.127-43.404-50.34-7.191-1.222-8.05-1.228-15.418-.11M35.174 28.314c-4.371 4.653-1.842 12.068 4.536 13.3 4.686.905 9.809-4.218 8.904-8.904-1.252-6.48-9.077-9.039-13.44-4.396m-12.1 16.548c-1.281 2.393.824 5.5 3.385 4.997 2.802-.551 4.195-3.366 2.611-5.275-1.776-2.139-4.777-2-5.996.278m80.138 13.848C98.279 80.585 86.186 94.786 65.495 103c-10.327 4.1-10.455 4.394-1.61 3.685 24.881-1.992 46.079-28.583 42.356-53.131l-.75-4.946-2.279 10.102M.349 59c0 4.675.173 6.588.383 4.25.211-2.338.211-6.163 0-8.5-.21-2.338-.383-.425-.383 4.25" fill-rule="evenodd"/>
<path fill="#fcfcfc" stroke="#fcfcfc" d="M49 1.017C10.901 7.64-10.412 48.743 6.033 83.883c16.113 34.434 59.142 44.513 89.626 20.994 9.668-7.458 17.981-20.709 20.314-32.377.66-3.3 1.611-6.781 2.113-7.736 1.064-2.022 1.256-13.439.209-12.392-.388.388-1.276-2.092-1.974-5.511C110.099 16.357 79.729-4.324 49 1.017m1.5 2C10.21 9.2-10.871 56.005 11.475 89.66c28.476 42.888 93.346 29.903 103.174-20.652 7.289-37.5-26.085-71.833-64.149-65.991M46 9.429C17.698 17.288 1.314 47.23 10.439 74.413 12.888 81.708 16.607 89 17.879 89c.375 0 3.992-5.4 8.038-12 4.047-6.6 7.68-12 8.075-12 .395 0 5.11 3.848 10.479 8.551 5.369 4.702 10.027 8.285 10.351 7.96.325-.325 5.175-7.66 10.777-16.301 10.079-15.544 10.165-15.727 8.11-17.353-2.03-1.606-1.936-1.714 4.208-4.815 3.457-1.745 6.396-3.031 6.532-2.857.136.173.039 3.341-.216 7.039-.437 6.347-.574 6.664-2.455 5.657-2.511-1.343-1.57-2.495-14.809 18.119-6.181 9.625-11.306 17.59-11.388 17.7-.082.111-4.774-3.874-10.427-8.854-5.653-4.98-10.388-8.895-10.522-8.7-.134.195-3.274 5.255-6.979 11.246l-6.736 10.891 2.262 2.408C30.552 103.539 46.219 110 57.877 110c39.397 0 63.82-39.11 46.506-74.472C94.397 15.135 67.979 3.325 46 9.429m-9.112 17.047c-5.46 3.017-5.843 10.341-.729 13.923 7.887 5.524 16.999-4.634 10.591-11.806-2.844-3.183-6.509-3.969-9.862-2.117M24.797 42.739c-2.014.461-3.107 3.29-2.192 5.674 1.137 2.963 6.824 1.704 7.205-1.596.335-2.903-1.965-4.775-5.013-4.078m78.407 15.007c-5.233 23.207-18.422 38.104-40.954 46.26-8.134 2.944-7.887 3.346 1.72 2.79 26.121-1.513 47.718-30.329 42.159-56.253-.521-2.431-1.04-1.152-2.925 7.203M.32 59c0 3.575.182 5.037.403 3.25.222-1.788.222-4.712 0-6.5C.502 53.962.32 55.425.32 59" fill-rule="evenodd"/>
<path fill="#2c1c45" stroke="#2c1c45" d="M50.87 1.037C2.989 8.359-16.27 66.18 17.897 100.034 36.433 118.4 61.094 122.52 85 111.244c15.443-7.284 28.726-24.676 31.162-40.801.577-3.819 1.451-7.724 1.943-8.679 1.221-2.37 1.143-7.035-.105-6.264-.589.364-1.005-.742-1.012-2.691-.056-15.595-14.538-37.164-30.601-45.578C76.01 1.795 61.949-.657 50.87 1.037M47.5 3.163C19.136 8.494-1.471 37.976 2.779 67.142c6.711 46.039 63.425 64.857 96.323 31.96C138.645 59.558 102.729-7.217 47.5 3.163m-.273 6.284C20.828 15.84 3.647 42.76 9.091 69.201c1.078 5.235 7.556 19.826 8.778 19.77.347-.015 3.673-5.078 7.392-11.25 3.718-6.171 7.159-11.847 7.646-12.612.682-1.072 3.251.694 11.205 7.701 5.676 5 10.398 9.001 10.493 8.89.094-.11 4.778-7.373 10.408-16.14l10.236-15.94-2.183-1.768c-2.177-1.763-2.163-1.778 5.028-5.399l7.211-3.632-.604 7.208c-.679 8.093-1.002 8.796-3.201 6.971-.852-.707-1.709-1.108-1.906-.893-.197.216-5.415 8.268-11.597 17.893-6.182 9.625-11.575 17.867-11.984 18.316-.41.449-5.146-3.038-10.524-7.75C40.11 75.855 35.434 72 35.096 72c-.869 0-13.097 19.926-13.092 21.335.006 1.867 8.817 8.478 15.637 11.732 30.396 14.507 66.67-5.24 71.586-38.971 5.131-35.204-27.486-65.007-62-56.649M34.923 27.923c-3.258 3.258-3.63 5.809-1.46 10.005C37.246 45.243 49 42.474 49 34.267c0-8.51-8.211-12.21-14.077-6.344M23.2 43.2c-3.478 3.478 1.514 9.942 5.27 6.825C31.454 47.549 29.745 42 26 42c-.88 0-2.14.54-2.8 1.2m80.92 9.3C98.44 80.735 86.791 94.681 61 104.121l-6.5 2.379 4 .512c24.025 3.073 48.746-21.376 48.4-47.867-.15-11.523-1.263-14.184-2.78-6.645M.232 59c0 1.925.206 2.712.457 1.75.252-.962.252-2.538 0-3.5-.251-.962-.457-.175-.457 1.75" fill-rule="evenodd"/>
</svg>